<?xml version="1.0" encoding="utf-8"?>
<!-- Generator: Adobe Illustrator 20.1.0, SVG Export Plug-In . SVG Version: 6.00 Build 0)  -->
<svg version="1.1" id="Layer_1" xmlns="http://www.w3.org/2000/svg" xmlns:xlink="http://www.w3.org/1999/xlink" x="0px" y="0px"
	 viewBox="0 0 127 37" style="enable-background:new 0 0 127 37;" xml:space="preserve">
<style type="text/css">
	.st0{fill:#FFFFFF;}
</style>
<g id="XMLID_65_">
	<path id="XMLID_66_" class="st0" d="M35.4,14.7l-0.8-0.4l-0.9-0.5c-0.6,0.7-2.2,2.1-5.6,3.1l-0.6,0.2l-1-7H9.1l-1,7.1L7.4,17
		c-3.4-1-4.9-2.4-5.5-3.1l-1.9,0.7c0.6,0.9,2.4,3,7.2,4.3l0.5,0.1L5.2,36.8h25.1L27.8,19l0.5-0.1C32.9,17.6,34.8,15.6,35.4,14.7z
		 M28.1,34.9H7.4L10.7,12h14.1L28.1,34.9z"/>
	<path id="XMLID_106_" class="st0" d="M17.8,2.2c2.5,0,4.6,1.9,4.9,4.4h1.9c-0.3-3.5-3.2-6.3-6.8-6.3c-3.6,0-6.5,2.8-6.8,6.3h1.9
		C13.2,4.1,15.2,2.2,17.8,2.2z"/>
	<path id="XMLID_107_" class="st0" d="M17.8,27.7c-2.5,0-4.6-1.9-4.9-4.4h-1.9c0.3,3.5,3.2,6.3,6.8,6.3s6.5-2.8,6.8-6.3h-1.9
		C22.4,25.8,20.3,27.7,17.8,27.7z"/>
</g>
<g id="XMLID_64_">
	<path class="st0" d="M54.8,29.3h-2.7l-7.2-9.6l-2.1,1.8v7.8h-2.3V9.5h2.3v9.8l9-9.8h2.7l-8,8.6L54.8,29.3z"/>
	<path class="st0" d="M57,10.5c0-0.5,0.1-0.9,0.4-1.1C57.6,9.1,57.9,9,58.3,9c0.4,0,0.7,0.1,0.9,0.4c0.3,0.2,0.4,0.6,0.4,1.1
		s-0.1,0.9-0.4,1.1C59,11.8,58.7,12,58.3,12c-0.4,0-0.7-0.1-0.9-0.4S57,11,57,10.5z M59.4,29.3h-2.2V14.5h2.2V29.3z"/>
	<path class="st0" d="M69,27.7c0.4,0,0.8,0,1.2-0.1c0.4-0.1,0.7-0.1,0.9-0.2v1.7c-0.2,0.1-0.6,0.2-1.1,0.3c-0.5,0.1-0.9,0.1-1.3,0.1
		c-2.9,0-4.3-1.5-4.3-4.5v-8.8h-2.1v-1.1l2.1-0.9l0.9-3.2h1.3v3.4h4.3v1.7h-4.3V25c0,0.9,0.2,1.6,0.6,2.1
		C67.6,27.5,68.2,27.7,69,27.7z"/>
	<path class="st0" d="M79.9,29.6c-2.1,0-3.8-0.7-5-2s-1.8-3.2-1.8-5.6c0-2.5,0.6-4.4,1.8-5.8c1.2-1.4,2.9-2,5.1-2
		c0.7,0,1.4,0.1,2.1,0.2s1.3,0.3,1.7,0.5l-0.7,1.9c-0.5-0.2-1-0.4-1.6-0.5c-0.6-0.1-1.1-0.2-1.6-0.2c-3,0-4.5,1.9-4.5,5.8
		c0,1.8,0.4,3.2,1.1,4.2s1.8,1.5,3.3,1.5c1.2,0,2.5-0.3,3.8-0.8v2C82.6,29.3,81.4,29.6,79.9,29.6z"/>
	<path class="st0" d="M97.3,29.3v-9.6c0-1.2-0.3-2.1-0.8-2.7c-0.5-0.6-1.4-0.9-2.6-0.9c-1.6,0-2.7,0.4-3.4,1.3
		c-0.7,0.8-1.1,2.2-1.1,4.2v7.8h-2.2V8.3h2.2v6.4c0,0.8,0,1.4-0.1,1.9h0.1c0.4-0.7,1.1-1.3,1.9-1.7c0.8-0.4,1.7-0.6,2.8-0.6
		c1.8,0,3.2,0.4,4.1,1.3c0.9,0.9,1.4,2.2,1.4,4.1v9.7H97.3z"/>
	<path class="st0" d="M110.9,14.2c0.7,0,1.3,0.1,1.8,0.2l-0.3,2.1c-0.6-0.1-1.2-0.2-1.6-0.2c-1.2,0-2.2,0.5-3.1,1.5
		c-0.9,1-1.3,2.2-1.3,3.6v8h-2.2V14.5h1.9l0.3,2.7h0.1c0.5-1,1.2-1.7,2-2.2C109.1,14.5,110,14.2,110.9,14.2z"/>
	<path class="st0" d="M113.1,14.5h2.4l3.2,8.5c0.7,1.9,1.2,3.3,1.3,4.2h0.1c0.1-0.5,0.4-1.2,0.7-2.4c0.4-1.1,1.6-4.5,3.7-10.3h2.4
		l-6.4,16.9c-0.6,1.7-1.4,2.9-2.2,3.6s-1.9,1-3.1,1c-0.7,0-1.4-0.1-2-0.2V34c0.5,0.1,1.1,0.2,1.7,0.2c1.5,0,2.6-0.9,3.3-2.6l0.8-2.1
		L113.1,14.5z"/>
</g>
<g>
</g>
<g>
</g>
<g>
</g>
<g>
</g>
<g>
</g>
<g>
</g>
</svg>
