<?xml version="1.0" encoding="utf-8"?>
<!-- Generator: Adobe Illustrator 20.1.0, SVG Export Plug-In . SVG Version: 6.00 Build 0)  -->
<svg version="1.1" id="Layer_1" xmlns="http://www.w3.org/2000/svg" xmlns:xlink="http://www.w3.org/1999/xlink" x="0px" y="0px"
	 viewBox="0 0 25 25" style="enable-background:new 0 0 25 25;" xml:space="preserve">
<style type="text/css">
	.st0{fill:#FFFFFF;}
</style>
<g>
	<path class="st0" d="M12.5,0C5.6,0,0.1,5.6,0.1,12.5c0,6.9,5.5,12.4,12.4,12.4c6.9,0,12.4-5.5,12.4-12.4C25,5.6,19.4,0,12.5,0
		L12.5,0z M19.3,13c0,0.3-0.2,0.6-0.6,0.6H14c-0.2,0-0.3,0.1-0.3,0.3v4.8c0,0.3-0.2,0.6-0.6,0.6H12c-0.3,0-0.6-0.2-0.6-0.6v-4.8
		c0-0.2-0.1-0.3-0.3-0.3H6.3c-0.3,0-0.6-0.2-0.6-0.6v-1.1c0-0.3,0.2-0.6,0.6-0.6h4.8c0.2,0,0.3-0.1,0.3-0.3V6.3
		c0-0.3,0.2-0.6,0.6-0.6h1.1c0.3,0,0.6,0.2,0.6,0.6v4.8c0,0.2,0.1,0.3,0.3,0.3h4.8c0.3,0,0.6,0.2,0.6,0.6V13z M19.3,13"/>
</g>
</svg>
