<?xml version="1.0" encoding="utf-8"?>
<!-- Generator: Adobe Illustrator 20.1.0, SVG Export Plug-In . SVG Version: 6.00 Build 0)  -->
<svg version="1.1" xmlns="http://www.w3.org/2000/svg" xmlns:xlink="http://www.w3.org/1999/xlink" x="0px" y="0px"
	 viewBox="0 0 99.7 99.8" style="enable-background:new 0 0 99.7 99.8;" xml:space="preserve">
<style type="text/css">
	.st0{fill:#F5F6F8;}
	.st1{fill:#686968;}
</style>
<g id="Layer_1">
	<rect class="st0" width="99.7" height="99.8"/>
</g>
<g id="Layer_2">
	<path id="XMLID_79_" class="st1" d="M49.4,30.1c-10.9,0-19.8,9-19.8,20s9,20,20,20s20-9,20-20S60.4,30.1,49.4,30.1z M49.4,32.2
		c9.8,0,17.8,8,17.8,17.8c0,4-1.4,7.7-3.7,10.7c-1.9-4.2-5.6-7.2-10.1-8.5c1.8-1.3,2.9-3.4,2.9-5.8c0-4-3.2-7.2-7.2-7.2
		s-6.9,3.2-6.9,7.2c0,2.2,1.1,4.3,2.7,5.6c-4.5,1.1-8.2,4.2-10.2,8c-1.9-2.9-3.2-6.4-3.2-10.1C31.6,40.2,39.6,32.2,49.4,32.2z
		 M49.4,51.5c-2.7,0-5-2.2-5-5s2.2-5,5-5s5,2.2,5,5C54.3,49.3,52.1,51.5,49.4,51.5z M49.4,67.9c-5.3,0-9.9-2.2-13.1-5.9
		c2.2-4.8,7-8.3,12.8-8.3c5.9,0,11,3.7,13.1,9C58.8,65.8,54.3,67.9,49.4,67.9z"/>
	<circle class="st1" cx="49.4" cy="46.4" r="5.8"/>
	<ellipse class="st1" cx="49" cy="61.1" rx="13.4" ry="8"/>
</g>
</svg>
