<?xml version="1.0" encoding="utf-8"?>
<!-- Generator: Adobe Illustrator 20.1.0, SVG Export Plug-In . SVG Version: 6.00 Build 0)  -->
<svg version="1.1" id="Layer_1" xmlns="http://www.w3.org/2000/svg" xmlns:xlink="http://www.w3.org/1999/xlink" x="0px" y="0px"
	 viewBox="0 0 40 40" style="enable-background:new 0 0 40 40;" xml:space="preserve">
<style type="text/css">
	.st0{fill:#FFFFFF;}
</style>
<g id="Layer_2">
	<path id="XMLID_79_" class="st0" d="M19.8,0C8.9,0,0,9,0,20s9,20,20,20s20-9,20-20S30.8,0,19.8,0z M19.8,2.1
		c9.8,0,17.8,8,17.8,17.8c0,4-1.4,7.7-3.7,10.7c-1.9-4.2-5.6-7.2-10.1-8.5c1.8-1.3,2.9-3.4,2.9-5.8c0-4-3.2-7.2-7.2-7.2
		s-6.9,3.2-6.9,7.2c0,2.2,1.1,4.3,2.7,5.6c-4.5,1.1-8.2,4.2-10.2,8C3.2,27,1.9,23.5,1.9,19.8C2,10.1,10,2.1,19.8,2.1z M19.8,21.4
		c-2.7,0-5-2.2-5-5s2.2-5,5-5s5,2.2,5,5C24.7,19.2,22.5,21.4,19.8,21.4z M19.8,37.8c-5.3,0-9.9-2.2-13.1-5.9c2.2-4.8,7-8.3,12.8-8.3
		c5.9,0,11,3.7,13.1,9C29.2,35.7,24.7,37.8,19.8,37.8z"/>
	<circle class="st0" cx="19.8" cy="16.3" r="5.8"/>
	<ellipse class="st0" cx="19.4" cy="31" rx="13.4" ry="8"/>
</g>
</svg>
