<?xml version="1.0" encoding="utf-8"?>
<!-- Generator: Adobe Illustrator 20.1.0, SVG Export Plug-In . SVG Version: 6.00 Build 0)  -->
<svg version="1.1" id="Layer_1" xmlns="http://www.w3.org/2000/svg" xmlns:xlink="http://www.w3.org/1999/xlink" x="0px" y="0px"
	 viewBox="0 0 99.7 99.8" style="enable-background:new 0 0 99.7 99.8;" xml:space="preserve">
<style type="text/css">
	.st0{fill:#F5F6F8;}
	.st1{fill:#666666;}
</style>
<g id="Layer_1_1_">
	<rect class="st0" width="99.7" height="99.8"/>
</g>
<path id="XMLID_6_" class="st1" d="M66.8,34.7H31.9c-1.4,0-2.5,1.1-2.5,2.4v25.1c0,1.3,1.1,2.4,2.5,2.4h34.9c1.4,0,2.5-1.1,2.5-2.4
	V37.1C69.3,35.8,68.2,34.7,66.8,34.7L66.8,34.7z M66.8,37.1v17.8l-5-4.4c-0.8-0.7-1.9-0.6-2.6,0.1l-5.1,4.9L44.1,44
	c-0.8-0.9-2.1-0.9-2.9,0l-9.3,10.4V37.1H66.8z M56,43.6c0-1.9,1.6-3.4,3.5-3.4c1.9,0,3.5,1.5,3.5,3.4c0,1.9-1.6,3.4-3.5,3.4
	S56,45.4,56,43.6L56,43.6z"/>
</svg>
