<?xml version="1.0" encoding="utf-8"?>
<!-- Generator: Adobe Illustrator 20.1.0, SVG Export Plug-In . SVG Version: 6.00 Build 0)  -->
<svg version="1.1" id="Layer_1" xmlns="http://www.w3.org/2000/svg" xmlns:xlink="http://www.w3.org/1999/xlink" x="0px" y="0px"
	 viewBox="0 0 25 25" style="enable-background:new 0 0 25 25;" xml:space="preserve">
<style type="text/css">
	.st0{fill:#FFFFFF;}
</style>
<g>
	<path class="st0" d="M12.5,0.8c2.5,0,5.1,0,7.6,0c0.1,0,0.3,0,0.4,0c0.3,0,0.5,0.2,0.6,0.4c1,2.3,2.1,4.5,3.1,6.8
		c0.1,0.3,0.1,0.6-0.1,0.9c-0.9,1.2-1.8,2.5-2.7,3.7c-2.8,3.7-5.5,7.5-8.3,11.2c-0.3,0.4-0.8,0.5-1.2,0.2c-0.1-0.1-0.1-0.1-0.2-0.2
		C8.2,19,4.6,14.1,1,9.2C0.6,8.7,0.5,8.3,0.8,7.7c1-2.1,2-4.3,3-6.4C3.9,1,4.2,0.8,4.6,0.8c1.7,0,3.4,0,5.1,0
		C10.6,0.8,11.5,0.8,12.5,0.8z M12.4,20.4C12.5,20.4,12.5,20.4,12.4,20.4c1.2-3.7,2.3-7.4,3.5-11.2c-2.3,0-4.6,0-6.9,0
		C10.2,12.9,11.3,16.7,12.4,20.4z M10.4,19.4C10.4,19.3,10.4,19.3,10.4,19.4c0-0.1,0-0.1,0-0.2c-1-3.3-2-6.6-3-9.8
		c0-0.1-0.1-0.2-0.2-0.2c-1.3,0-2.7,0-4,0c-0.1,0-0.1,0-0.2,0C5.5,12.6,7.9,16,10.4,19.4z M14.5,19.3L14.5,19.3
		c2.5-3.4,5-6.7,7.5-10.1c-0.1,0-0.2,0-0.2,0c-1.3,0-2.7,0-4,0c-0.2,0-0.2,0.1-0.2,0.2c-0.9,3-1.8,5.9-2.7,8.9
		C14.7,18.6,14.6,19,14.5,19.3z M12.5,3c-1,1.5-2,3-3,4.6c2,0,4.1,0,6.1,0C14.5,6.1,13.5,4.6,12.5,3z M5.8,2.4
		C6.6,3.9,7.3,5.3,8,6.8c1-1.5,2-2.9,3-4.4C9.2,2.4,7.5,2.4,5.8,2.4z M16.9,6.8c0.7-1.5,1.5-3,2.2-4.4c-1.7,0-3.4,0-5.2,0
		C14.9,3.9,15.9,5.3,16.9,6.8z M2.6,7.6c1.3,0,2.7,0,4,0c-0.7-1.4-1.3-2.8-2-4.2C3.9,4.8,3.3,6.2,2.6,7.6z M22.3,7.6
		c-0.6-1.4-1.3-2.8-1.9-4.2c-0.7,1.4-1.4,2.8-2.1,4.2C19.6,7.6,21,7.6,22.3,7.6z"/>
</g>
</svg>
