<?xml version="1.0" encoding="utf-8"?>
<!-- Generator: Adobe Illustrator 20.1.0, SVG Export Plug-In . SVG Version: 6.00 Build 0)  -->
<svg version="1.1" id="Layer_1" xmlns="http://www.w3.org/2000/svg" xmlns:xlink="http://www.w3.org/1999/xlink" x="0px" y="0px"
	 viewBox="0 0 25 25" style="enable-background:new 0 0 25 25;" xml:space="preserve">
<style type="text/css">
	.st0{fill:#FFFFFF;}
</style>
<g>
	<path class="st0" d="M24.9,18.7c0,0.5-0.2,1-0.4,1.5l-7.8-8.8l7.8-6.8c0.3,0.5,0.5,1,0.5,1.6V18.7z M12.5,13.1l10.8-9.4
		c-0.4-0.2-0.9-0.4-1.5-0.4H3.2c-0.5,0-1,0.1-1.5,0.4L12.5,13.1z M15.5,12.5L13,14.7c-0.1,0.1-0.3,0.2-0.5,0.2
		c-0.2,0-0.4-0.1-0.5-0.2l-2.5-2.2l-7.9,8.9c0.5,0.3,1,0.5,1.6,0.5h18.6c0.6,0,1.2-0.2,1.6-0.5L15.5,12.5z M0.6,4.7
		c-0.3,0.5-0.5,1-0.5,1.6v12.4c0,0.5,0.2,1,0.4,1.5l7.8-8.8L0.6,4.7z M0.6,4.7"/>
</g>
</svg>
