<?xml version="1.0" encoding="utf-8"?>
<!-- Generator: Adobe Illustrator 20.1.0, SVG Export Plug-In . SVG Version: 6.00 Build 0)  -->
<svg version="1.1" id="Layer_1" xmlns="http://www.w3.org/2000/svg" xmlns:xlink="http://www.w3.org/1999/xlink" x="0px" y="0px"
	 viewBox="0 0 25 25" style="enable-background:new 0 0 25 25;" xml:space="preserve">
<style type="text/css">
	.st0{fill:#FFFFFF;}
</style>
<g>
	<path class="st0" d="M23.3,6.2c-1.1-1.9-2.6-3.4-4.5-4.5c-1.9-1.1-4-1.7-6.3-1.7c-2.3,0-4.3,0.6-6.3,1.7C4.4,2.8,2.9,4.3,1.8,6.2
		c-1.1,1.9-1.7,4-1.7,6.3c0,2.3,0.6,4.3,1.7,6.3c1.1,1.9,2.6,3.4,4.5,4.5c1.9,1.1,4,1.7,6.3,1.7c2.3,0,4.3-0.6,6.3-1.7
		c1.9-1.1,3.4-2.6,4.5-4.5c1.1-1.9,1.7-4,1.7-6.3C25,10.2,24.5,8.1,23.3,6.2L23.3,6.2z M14.1,19C14,18.9,14,18.8,14,18.7
		c0,0.1,0,0.1-0.1,0.1c-0.1-0.1-0.2-0.1-0.3-0.2c-0.1-0.1-0.2-0.2-0.3-0.2c0,0-0.1-0.1-0.1-0.1c0-0.1-0.1-0.1-0.1-0.2
		c-0.1-0.1-0.1-0.2-0.1-0.3c0-0.1,0-0.1,0-0.1c-0.2,0.1-0.5,0-0.9-0.2c-0.1,0-0.2-0.2-0.3-0.3c-0.2-0.2-0.3-0.3-0.5-0.2
		c-0.1,0-0.1,0-0.2,0.1c-0.1,0-0.2,0-0.2,0c-0.1,0-0.2,0-0.3-0.1c-0.1,0-0.2-0.1-0.3-0.2c-0.1-0.1-0.2-0.1-0.3-0.2l-0.2-0.1
		l-0.3-0.1c-0.1,0-0.1-0.1-0.2-0.2c-0.1-0.1-0.1-0.1-0.1-0.2c0-0.1,0-0.2-0.1-0.4c0-0.2-0.1-0.3-0.1-0.4c-0.1-0.1-0.2-0.2-0.3-0.3
		c-0.1-0.1-0.2-0.2-0.3-0.2c0.1,0,0.1-0.1,0-0.2c-0.1-0.1-0.2-0.3-0.2-0.3c0,0-0.1-0.1-0.2-0.2c-0.1-0.1-0.2-0.2-0.3-0.3
		c-0.1-0.1-0.1-0.2-0.2-0.3c-0.1-0.1-0.1-0.2,0-0.3c0,0,0,0,0,0c0,0-0.1,0-0.1-0.1c0,0-0.1,0-0.1-0.1c0,0-0.1,0-0.1,0
		c0,0,0,0.1,0.1,0.2c0,0.1,0.1,0.2,0.1,0.3c0,0,0.1,0.2,0.3,0.5c0.3,0.5,0.4,0.8,0.4,1c-0.1,0-0.1,0-0.1,0c0,0,0-0.1,0-0.2
		c0-0.1,0-0.1,0-0.2c0-0.1-0.1-0.1-0.3-0.2C7.2,14.1,7.1,14,7,13.9c0,0,0,0,0,0c0,0,0,0,0,0c0-0.1,0-0.2-0.2-0.4
		c-0.1-0.2-0.2-0.3-0.2-0.3c-0.1-0.1-0.2-0.2-0.2-0.4c-0.1-0.2-0.1-0.3-0.2-0.4c0-0.1-0.1-0.1-0.2-0.2c-0.1,0-0.1-0.1-0.2-0.2
		C5.9,12.1,5.8,12,5.8,12c0,0-0.1-0.1-0.1-0.1c-0.4-0.4-0.5-0.7-0.3-0.7c-0.1,0-0.3-0.1-0.3-0.3c-0.1-0.2-0.1-0.4-0.1-0.6l0,0
		c0,0,0-0.2,0-0.4c0-0.2,0-0.4,0-0.6C5,9.2,5,9.1,5.1,9.1C5,9.1,5,9,4.9,8.9c0-0.1,0-0.2,0-0.3c0,0,0.1,0,0.1,0.1
		c0.1,0.1,0.1,0.1,0.1,0.1c0.1-0.1,0.2-0.2,0.2-0.3c0,0-0.1-0.2-0.3-0.3C4.6,7.8,4.3,7.7,4.3,7.7c0.1-0.1,0-0.2,0-0.3
		c-0.1,0.1-0.2,0.1-0.2,0c0,0,0-0.1,0-0.2C4,7.2,4,7.1,4,7.1C3.9,7.1,3.8,7.1,3.8,7c1-1.5,2.2-2.7,3.8-3.6c0.1,0,0.2,0,0.4,0
		c0.1,0,0.2,0,0.2,0.1c0.1,0,0.2,0.1,0.2,0.2c0.1,0.1,0.1,0.1,0.2,0.2c0-0.1,0-0.2-0.1-0.3c0-0.1,0.1-0.1,0.4-0.2c0.2,0,0.4,0,0.5,0
		C9.3,3.2,9.2,3.1,9,2.9L9,3C8.9,2.9,8.6,3,8.3,3.1c0,0-0.1,0-0.2,0.1C8,3.2,8,3.3,7.9,3.3c-0.1,0-0.1,0-0.2,0
		c0.5-0.3,1-0.5,1.5-0.7c0,0,0.1,0.1,0.2,0.1c0.1,0.1,0.1,0.1,0.2,0.2c0,0-0.1,0-0.1,0c0,0.1,0,0.2,0,0.3c0.1,0.1,0.1,0.1,0.2,0.1
		c0.1,0,0.2,0,0.3,0c0.1,0,0.2,0,0.3,0l0.2,0c0.3,0,0.5,0,0.4-0.1c0,0,0.1,0.1,0.1,0.3c0,0.1,0.1,0.2,0.1,0.3c0.1,0,0.1-0.1,0-0.2
		c0-0.1,0-0.2,0-0.2c0,0,0,0,0.1-0.1c0.1,0,0.1,0,0.2-0.1c0.1,0,0.1,0,0.1-0.1c0.1,0,0-0.1-0.1-0.2c0,0-0.1,0-0.1,0
		c-0.1,0-0.1,0-0.2-0.1c-0.1,0-0.1-0.1-0.2-0.1c-0.1,0-0.1-0.1-0.1-0.1c0,0,0-0.1,0.1-0.2c0.1-0.1,0.2-0.1,0.3-0.1
		c0.1,0,0.3,0,0.3,0.1c0.3,0.2,0.3,0.3,0.1,0.4C11.9,2.9,12,3,12.2,3c0.2,0.1,0.2,0.2,0.2,0.2C12.4,3.1,12.5,3,12.6,3
		c0.1,0,0.1,0.1,0.2,0.2c0,0.1,0.1,0.2,0.1,0.2c0.1,0.1,0.2,0.1,0.3,0.1c0.1-0.1,0.2-0.2,0.3-0.3c0.1-0.1,0.1-0.2,0.2-0.2
		c-0.1,0-0.1-0.1,0-0.1c0.2-0.1,0.3-0.1,0.4-0.1C14,2.9,14,3,14.1,3c0.1,0.2,0.1,0.3,0,0.3c0.1,0.1,0.1,0.2,0.1,0.3
		c0,0.1-0.1,0.2-0.3,0.2c-0.1,0-0.1,0-0.2-0.1c-0.1-0.1-0.2-0.1-0.2-0.1c-0.1,0-0.1,0-0.2,0.1c0,0.1-0.1,0.1-0.2,0.3
		c-0.1,0.1-0.1,0.2-0.2,0.3c-0.2,0.2-0.4,0.2-0.8,0.2c0,0,0,0,0,0.1c0,0.1-0.1,0.1-0.2,0.2c-0.1,0.1-0.1,0.1-0.1,0.1
		c-0.1,0.1-0.2,0.2-0.2,0.4c0,0,0,0.1,0,0.2c0,0.1,0,0.2-0.1,0.3c0.1,0,0.2,0,0.3,0.2c0.1,0.2,0.1,0.2,0,0.2c0.4-0.1,0.7,0,0.9,0.1
		c0.4,0.1,0.6,0.3,0.7,0.4c0.1-0.1,0.2-0.1,0.5,0c0.1,0.1,0.2,0.2,0.3,0.5c0,0.2,0.1,0.3,0.2,0.4c0.1,0.1,0.2,0.2,0.3,0.1l0,0
		c0,0,0.1,0,0.1-0.1c0,0,0.1,0,0.1-0.1c0,0,0.1-0.1,0.1-0.1c0,0,0,0,0-0.1c-0.1-0.1-0.1-0.2-0.2-0.3c0-0.1,0-0.2,0-0.3
		c0,0,0.1-0.1,0.3-0.2c0.1-0.1,0.2-0.2,0.3-0.3c0-0.1,0-0.3-0.2-0.3C15,6,14.9,5.9,14.9,5.8c0-0.1,0-0.1,0.1-0.2
		c0.1-0.1,0.1-0.1,0.1-0.2c0,0,0-0.1-0.1-0.2C15,5.1,15,5,15,5c0,0,0-0.1,0.1-0.2c0.1,0,0.3,0,0.5,0c0.3,0,0.5,0.1,0.6,0.2
		c0,0,0.1,0.1,0.2,0.1c0.1,0,0.2,0.1,0.3,0.1c0.1,0,0.1,0.1,0.1,0.1h-0.1c0.1,0.1,0.1,0.1,0.1,0.2c0,0.1,0,0.2-0.1,0.2
		c0.1,0,0.2,0,0.3,0c0.2,0.1,0.2,0.1,0,0.2c0,0,0.1,0,0.1,0c0.1,0,0.1,0,0.1,0c0,0,0,0,0.1-0.1c0,0,0.1,0,0.1,0c0,0,0,0,0.1,0
		c0,0,0.1,0,0.1,0c0,0,0,0,0.1-0.1c0-0.1,0.1-0.1,0.1-0.2c0-0.1,0.1-0.1,0.1-0.1c0,0,0.1,0,0.1,0c0,0,0,0.1,0.1,0.1c0,0,0,0.1,0,0.1
		c0,0,0,0.1,0,0.1c0,0.1,0.1,0.1,0.2,0.2c0.1,0.1,0.1,0.1,0.2,0.2c0,0,0,0.1,0.1,0.2c0,0.1,0.1,0.2,0.1,0.3c0.1,0,0.1,0.1,0.2,0.1
		c0,0,0.1,0,0.1,0c0.1,0,0.1,0,0.2,0c0,0,0.1,0.1,0.1,0.1c0.1-0.1,0.1-0.1,0.1-0.1c0,0.1,0,0.3,0.1,0.3c0.1,0.1,0.2,0.1,0.3,0.1
		l0,0.4c0,0.1-0.1,0.1-0.2,0.1c-0.1,0-0.2,0.1-0.2,0.1c0,0-0.1,0.1-0.2,0.2c-0.1,0.1-0.2,0.2-0.2,0.2C18.7,7.9,18.4,7.9,18,8
		c-0.4,0.1-0.7,0.1-0.8,0.2c-0.2,0.1-0.3,0.2-0.4,0.2c0,0,0,0-0.1,0.1c0,0.1-0.1,0.1-0.1,0.2c0,0.1-0.1,0.1-0.1,0.1
		c0.1,0,0.1-0.1,0.2-0.2C16.9,8.5,17,8.5,17,8.5c0.3-0.2,0.5-0.2,0.7-0.2c0.2,0.1,0.3,0.2,0.1,0.3c0,0-0.1,0-0.2,0
		c-0.1,0-0.2,0-0.2,0c0.1,0,0.2,0.1,0.2,0.1c0.1,0,0.1,0.1,0,0.2C17.9,8.9,18,9,17.8,9.1c-0.1,0.1-0.3,0.2-0.5,0.2c0,0,0,0,0,0.1
		l-0.3,0.2c0,0-0.1,0-0.2,0.1c-0.1,0-0.2,0.1-0.2,0.1c0,0,0,0.1,0,0.2c0,0.1,0,0.2,0,0.2c0,0-0.1,0.1-0.1,0c0,0.1-0.1,0.1-0.3,0.2
		c-0.2,0-0.3,0.1-0.3,0.2c0.1,0.1,0.1,0.2,0,0.3c-0.1,0.1-0.2,0.1-0.3,0c-0.1,0-0.1,0.1-0.1,0.2c0,0.1-0.1,0.1-0.1,0.2
		c0.1,0.1,0.1,0.2,0,0.3c0,0,0,0,0.1,0c0,0,0.1,0,0.1,0.1c0,0,0.1,0,0.1,0c0,0.1-0.1,0.1-0.2,0.1c0.1,0.2,0,0.4-0.2,0.6
		c0,0-0.1,0.1-0.2,0.1c-0.1,0-0.2,0.1-0.3,0.1c-0.1,0-0.1,0-0.1,0.1c-0.1,0.1-0.2,0.2-0.2,0.3c-0.1,0.1-0.1,0.2,0,0.3
		c0,0.1,0.1,0.2,0.3,0.2l0,0.1v0.3l0,0.1c0,0.1,0,0.1,0,0.2c0,0.1,0,0.1,0,0.2c0,0.1,0,0.1-0.1,0.2c0,0-0.1,0-0.2,0
		c-0.1,0-0.2-0.3-0.3-0.7c0-0.1-0.1-0.2-0.2-0.4c-0.1,0.1-0.1,0.1-0.1,0.1c0,0-0.1,0-0.1,0c0,0,0,0-0.1-0.1c0,0-0.1-0.1-0.1-0.1
		c-0.1,0-0.1-0.1-0.3-0.1c-0.1,0-0.2,0-0.3-0.1c-0.3,0.2-0.4,0.1-0.5-0.1c0,0.1,0,0.1,0,0.2c0,0.1,0,0.1,0,0.2
		c-0.1,0.1-0.2,0.2-0.4,0c-0.1-0.1-0.2-0.1-0.4,0c-0.2,0-0.4,0.1-0.5,0c0,0,0,0,0.1,0c0,0,0.1,0,0.1,0c0,0,0,0.1,0,0.1
		c0,0,0,0-0.1,0c0,0,0,0-0.1,0c0,0-0.1,0-0.1,0c0,0-0.1,0.1-0.2,0.2c-0.1,0.1-0.1,0.1-0.1,0.2c0.1,0.2,0.1,0.3,0.1,0.4
		c0,0.1,0,0.2,0,0.4c0,0.2,0,0.3,0,0.4c0,0.2,0.1,0.4,0.2,0.6c0.1,0.2,0.2,0.4,0.4,0.5c0.1,0,0.2,0.1,0.4,0.1c0.2,0,0.3,0,0.4,0
		c0.1,0,0.1-0.1,0.1-0.1c0,0,0.1-0.1,0.1-0.2c0-0.1,0-0.1,0-0.2c0.1-0.2,0.2-0.3,0.4-0.3c0.1,0,0.2,0,0.3,0c0.1,0,0.1,0.1,0.1,0.2
		c0,0.1,0,0.1-0.1,0.2c0,0.1-0.1,0.1-0.1,0.2c0,0.1-0.1,0.2-0.1,0.2c0,0.1,0,0.2-0.1,0.4c0,0.2,0,0.3,0,0.3c0,0,0.1,0,0.2,0
		c0,0,0-0.1,0-0.1c0,0,0-0.1,0-0.1c0.1,0.1,0.1,0.1,0.3,0.1c0.1,0,0.2,0,0.3-0.1c0,0,0.1,0.1,0.2,0.2c0.1,0.1,0.2,0.2,0.2,0.3
		c0,0,0,0.1,0.1,0.2c0,0.1,0,0.2,0,0.2c0,0-0.1,0.1-0.2,0.1c0,0-0.1,0-0.1,0c0,0,0,0.1,0,0.1c0,0,0,0.1,0,0.1c0,0,0,0.1,0.1,0.1
		c0,0,0,0.1,0,0.1c0.2,0.4,0.5,0.5,0.8,0.3c0,0.3-0.1,0.5-0.2,0.5C14.3,19.2,14.2,19.2,14.1,19L14.1,19z M14.4,22.7
		c0-0.1,0-0.2,0-0.3c0-0.1,0-0.2,0.1-0.3c0.1-0.1,0.1-0.3,0.1-0.3c-0.2,0-0.2-0.2-0.2-0.4c0-0.2,0.2-0.4,0.5-0.6
		c0.2-0.2,0.3-0.4,0.2-0.8c0-0.1-0.1-0.3-0.1-0.6c0-0.3,0-0.5-0.1-0.6c0,0,0.1,0.1,0.2,0.1c0.1,0,0.2,0.1,0.2,0.1c0,0,0-0.1,0.1-0.2
		c0-0.1,0.1-0.2,0.1-0.2c0,0,0.1-0.1,0.1-0.1c0.1,0,0.1-0.1,0.1-0.1c0,0,0.1,0,0.1-0.1c0.1-0.1,0.1-0.1,0.2-0.1c0,0,0.1-0.1,0.2-0.1
		c0.1,0,0.1,0,0.2,0.1c0.1,0.1,0,0.2,0,0.3c-0.1,0.1-0.1,0.2,0,0.3c0,0,0-0.1,0-0.2c0-0.1,0-0.2,0.1-0.2c0.1-0.1,0.1-0.1,0.2-0.1
		c0.1,0,0.1,0,0.2,0c0,0,0.1,0.1,0.2,0.1c0.1,0,0.1,0.1,0.2,0.1c0.2,0.1,0.4,0.2,0.6,0.4c0,0,0,0,0,0c0,0,0,0,0.1,0c0,0,0.1,0,0.1,0
		c0,0,0.1,0,0.1,0l0,0c0.1,0,0.1,0,0.2,0c0,0,0.1,0,0.1,0c0.1,0,0.1,0.1,0.1,0.1c0,0,0.1,0,0.1,0.1c0.1,0,0.1,0.1,0.1,0.1
		c0,0,0.1,0.1,0.2,0.1C19,19,19,19,19.1,19c0,0,0.1,0.1,0.1,0.1c0,0.1,0.1,0.1,0,0.2c0.1,0,0.2,0.1,0.4,0.1c0,0,0.1,0,0.2,0.1
		c0.1,0,0.2,0,0.2,0.1C18.5,21.3,16.6,22.3,14.4,22.7L14.4,22.7z M14.4,22.7"/>
</g>
</svg>
