<?xml version="1.0" encoding="utf-8"?>
<!-- Generator: Adobe Illustrator 20.1.0, SVG Export Plug-In . SVG Version: 6.00 Build 0)  -->
<svg version="1.1" id="Layer_1" xmlns="http://www.w3.org/2000/svg" xmlns:xlink="http://www.w3.org/1999/xlink" x="0px" y="0px"
	 viewBox="0 0 25 25" style="enable-background:new 0 0 25 25;" xml:space="preserve">
<style type="text/css">
	.st0{fill:#676767;}
</style>
<path class="st0" d="M15.8,8.5c0,2.6-1.5,5.2-3.3,5.2s-3.3-2.6-3.3-5.2s1.3-3.9,3.3-3.9S15.8,5.9,15.8,8.5z M17.1,15.7
	c-1.3-0.7-2.6-2-2.6-2c-0.7,0.7-2,1.3-2,1.3s-1.3-0.7-2-1.3c0,0-1.3,1.3-2.6,2s-3.3,1.3-3.3,2.6s0,2,0,2h7.9h7.9c0,0,0-0.7,0-2
	S18.4,16.4,17.1,15.7z M6.7,14.9c0.2-0.1,0.4-0.2,0.6-0.3c0.1,0,0.1-0.1,0.2-0.1c-0.1,0-0.1-0.1-0.2-0.1c-0.8-0.4-1.5-1.1-1.5-1.1
	c0,0-0.1,0-0.2,0v-0.5c0.6-0.6,0.9-1.6,0.9-2.6c0-1.5-0.8-2.3-1.9-2.3s-1.9,0.8-1.9,2.3c0,1,0.4,2,0.9,2.6v0.5
	c-0.1,0.1-0.1,0.1-0.2,0c0,0-0.8,0.8-1.5,1.1c-0.8,0.4-1.9,0.8-1.9,1.5s0,1.1,0,1.1h3.6C4.3,16,5.7,15.4,6.7,14.9z M23,14.4
	c-0.8-0.4-1.5-1.1-1.5-1.1c0,0-0.1,0-0.2,0v-0.5c0.6-0.6,0.9-1.6,0.9-2.6c0-1.5-0.8-2.3-1.9-2.3c-1.1,0-1.9,0.8-1.9,2.3
	c0,1,0.4,2,0.9,2.6v0.5c-0.1,0.1-0.1,0.1-0.2,0c0,0-0.8,0.8-1.5,1.1c-0.1,0-0.1,0.1-0.2,0.1c0.1,0,0.1,0.1,0.2,0.1
	c0.2,0.1,0.4,0.2,0.6,0.3c1,0.5,2.4,1.1,3,2.2h3.6c0,0,0-0.4,0-1.1S23.8,14.8,23,14.4z"/>
</svg>
