<?xml version="1.0" encoding="utf-8"?>
<!-- Generator: Adobe Illustrator 20.1.0, SVG Export Plug-In . SVG Version: 6.00 Build 0)  -->
<svg version="1.1" id="Layer_1" xmlns="http://www.w3.org/2000/svg" xmlns:xlink="http://www.w3.org/1999/xlink" x="0px" y="0px"
	 viewBox="0 0 25 25" style="enable-background:new 0 0 25 25;" xml:space="preserve">
<style type="text/css">
	.st0{fill:#FFFFFF;}
</style>
<path class="st0" d="M18.7,17.4c1-1,2.1-1.9,3.1-2.9c-1.1-0.3-2.2-0.7-3.3-1c1.1-1.5,2.2-3,3.4-4.6c-1.7,0.3-3.4,0.5-5,0.8
	c0.4-2.1,0.8-4.2,1.3-6.3l0,0C17,4.9,15.7,6.5,14.5,8l0,0c0-3.1,0-4.8,0-7.9l0,0c-0.9,3.2-1.7,5-2.6,8.3C10.8,6.5,9.9,4.8,9,3l0,0
	C8.9,4.9,8.9,6.9,8.8,8.8c-2-1.1-4-2.1-6-3.2l0,0C4.2,7.8,5.6,9.9,7,12c-0.8,0.6-1.6,1.2-2.4,1.8c0.8,0.5,1.7,0.9,2.5,1.4
	c-1.6,1.3-3.2,2.6-4.9,3.9c2.1,0,4.1,0,6.2,0C8.5,21,8.6,23,8.7,24.9l0,0c0.8-1.5,1.7-2.9,2.5-4.4c0.6,0.6,1.1,1.2,1.7,1.8
	c0.3-0.6,0.5-1.1,0.8-1.6c1,0.8,1.9,1.6,2.9,2.4c0.1-0.8,0.1-1.6,0.2-2.4c1.9,1.1,3.8,2.2,5.7,3.3l0,0C21.3,21.8,20,19.6,18.7,17.4z
	"/>
</svg>
