<?xml version="1.0" encoding="utf-8"?>
<!-- Generator: Adobe Illustrator 20.1.0, SVG Export Plug-In . SVG Version: 6.00 Build 0)  -->
<svg version="1.1" id="Layer_1" xmlns="http://www.w3.org/2000/svg" xmlns:xlink="http://www.w3.org/1999/xlink" x="0px" y="0px"
	 viewBox="0 0 25 25" style="enable-background:new 0 0 25 25;" xml:space="preserve">
<style type="text/css">
	.st0{fill:#676767;}
</style>
<path class="st0" d="M19.7,23.3L14,14.4l9.9,3.5C23.1,20.2,21.6,22.1,19.7,23.3z M15,0.4c-0.8-0.2-1.7-0.3-2.6-0.3v10.5L15,0.4z
	 M24.3,16c0.4-1.1,0.6-2.3,0.6-3.5c0-4.9-3.4-9.1-8-10.2l-2.6,10.2L24.3,16z M10.6,3.9C4.8,3.9,0.1,8.6,0.1,14.4
	C0.1,20.2,4.8,25,10.6,25c2.1,0,4-0.6,5.6-1.7l-5.6-8.9V3.9z"/>
</svg>
