<?xml version="1.0" encoding="utf-8"?>
<!-- Generator: Adobe Illustrator 20.1.0, SVG Export Plug-In . SVG Version: 6.00 Build 0)  -->
<svg version="1.1" id="Layer_1" xmlns="http://www.w3.org/2000/svg" xmlns:xlink="http://www.w3.org/1999/xlink" x="0px" y="0px"
	 viewBox="0 0 25 25" style="enable-background:new 0 0 25 25;" xml:space="preserve">
<style type="text/css">
	.st0{fill:#FFFFFF;}
</style>
<g id="XMLID_65_">
	<path id="XMLID_66_" class="st0" d="M24.6,9.9L24,9.6l-0.6-0.3c-0.4,0.5-1.5,1.4-3.8,2.1l-0.4,0.1l-0.7-4.8H6.6l-0.7,4.8l-0.4-0.1
		c-2.3-0.7-3.4-1.6-3.7-2.1L0.5,9.8c0.4,0.6,1.6,2.1,4.9,3l0.3,0.1L4,25h17.1l-1.8-12.1l0.3-0.1C22.8,11.9,24.1,10.5,24.6,9.9z
		 M19.6,23.6H5.5L7.7,8.1h9.6L19.6,23.6z"/>
	<path id="XMLID_106_" class="st0" d="M12.5,1.4c1.7,0,3.1,1.3,3.3,3h1.3C17,2,15,0.1,12.5,0.1c-2.4,0-4.5,1.9-4.6,4.3h1.3
		C9.4,2.7,10.8,1.4,12.5,1.4z"/>
	<path id="XMLID_107_" class="st0" d="M12.5,18.7c-1.7,0-3.1-1.3-3.3-3H7.9c0.2,2.4,2.2,4.3,4.6,4.3s4.5-1.9,4.6-4.3h-1.3
		C15.7,17.4,14.2,18.7,12.5,18.7z"/>
</g>
</svg>
