<?xml version="1.0" encoding="utf-8"?>
<!-- Generator: Adobe Illustrator 20.1.0, SVG Export Plug-In . SVG Version: 6.00 Build 0)  -->
<svg version="1.1" id="Layer_1" xmlns="http://www.w3.org/2000/svg" xmlns:xlink="http://www.w3.org/1999/xlink" x="0px" y="0px"
	 viewBox="0 0 50 50" style="enable-background:new 0 0 50 50;" xml:space="preserve">
<style type="text/css">
	.st0{fill:url(#SVGID_1_);}
	.st1{fill:#FFFFFF;}
</style>
<linearGradient id="SVGID_1_" gradientUnits="userSpaceOnUse" x1="0.1574" y1="25.0285" x2="49.8996" y2="25.0285">
	<stop  offset="0" style="stop-color:#EF3F49"/>
	<stop  offset="1" style="stop-color:#F89730"/>
</linearGradient>
<circle class="st0" cx="25" cy="25" r="24.9"/>
<g id="XMLID_33_">
	<path id="XMLID_36_" class="st1" d="M39.2,21.5l-0.7-0.3l-0.7-0.4c-0.5,0.5-1.7,1.6-4.4,2.5l-0.5,0.1l-0.8-5.5H18.3l-0.8,5.6
		L17,23.4c-2.7-0.8-3.9-1.9-4.4-2.5l-1.5,0.6c0.5,0.8,1.9,2.4,5.7,3.4l0.4,0.1l-2,14h19.9l-2-14.1l0.4-0.1
		C37.2,23.8,38.7,22.3,39.2,21.5z M33.4,37.5H17l2.6-18.1h11.1L33.4,37.5z"/>
	<path id="XMLID_35_" class="st1" d="M25.2,11.7c2,0,3.6,1.5,3.9,3.5h1.5c-0.2-2.8-2.6-5-5.4-5c-2.8,0-5.2,2.2-5.4,5h1.5
		C21.6,13.2,23.2,11.7,25.2,11.7z"/>
	<path id="XMLID_34_" class="st1" d="M25.2,31.8c-2,0-3.6-1.5-3.9-3.5h-1.5c0.2,2.8,2.6,5,5.4,5s5.2-2.2,5.4-5h-1.5
		C28.8,30.3,27.2,31.8,25.2,31.8z"/>
</g>
</svg>
