<?xml version="1.0" encoding="utf-8"?>
<!-- Generator: Adobe Illustrator 20.1.0, SVG Export Plug-In . SVG Version: 6.00 Build 0)  -->
<svg version="1.1" id="Layer_1" xmlns="http://www.w3.org/2000/svg" xmlns:xlink="http://www.w3.org/1999/xlink" x="0px" y="0px"
	 viewBox="0 0 40 40" style="enable-background:new 0 0 40 40;" xml:space="preserve">
<style type="text/css">
	.st0{fill:#FFFFFF;}
</style>
<path class="st0" d="M39.5,19.3L26.9,6.7c-0.3-0.3-0.6-0.4-1-0.4c-0.4,0-0.7,0.1-1,0.4c-0.5,0.5-0.5,1.4,0,2l10.2,10.2H1.6
	c-0.8,0-1.4,0.6-1.4,1.4c0,0.8,0.6,1.4,1.4,1.4h33.5L24.9,31.8c-0.5,0.6-0.5,1.5,0,2c0.3,0.3,0.6,0.4,1,0.4c0.4,0,0.7-0.1,1-0.4
	l12.6-12.6c0.3-0.3,0.4-0.6,0.4-1C39.9,19.9,39.8,19.5,39.5,19.3z"/>
</svg>
