<?xml version="1.0" encoding="utf-8"?>
<!-- Generator: Adobe Illustrator 20.1.0, SVG Export Plug-In . SVG Version: 6.00 Build 0)  -->
<svg version="1.1" id="Layer_1" xmlns="http://www.w3.org/2000/svg" xmlns:xlink="http://www.w3.org/1999/xlink" x="0px" y="0px"
	 viewBox="0 0 25 25" style="enable-background:new 0 0 25 25;" xml:space="preserve">
<style type="text/css">
	.st0{fill:#676867;}
</style>
<path id="XMLID_79_" class="st0" d="M12.5,0C5.7,0,0.1,5.6,0.1,12.5s5.6,12.5,12.5,12.5c6.9,0,12.5-5.6,12.5-12.5S19.4,0,12.5,0z
	 M12.5,1.3c6.1,0,11.1,5,11.1,11.1c0,2.5-0.9,4.8-2.3,6.7c-1.2-2.6-3.5-4.5-6.3-5.3c1.1-0.8,1.8-2.1,1.8-3.6c0-2.5-2-4.5-4.5-4.5
	S8,7.7,8,10.2c0,1.4,0.7,2.7,1.7,3.5c-2.8,0.7-5.1,2.6-6.4,5c-1.2-1.8-2-4-2-6.3C1.4,6.3,6.4,1.3,12.5,1.3z M12.5,13.4
	c-1.7,0-3.1-1.4-3.1-3.1s1.4-3.1,3.1-3.1s3.1,1.4,3.1,3.1S14.2,13.4,12.5,13.4z M12.5,23.6c-3.3,0-6.2-1.4-8.2-3.7
	c1.4-3,4.4-5.2,8-5.2c3.7,0,6.9,2.3,8.2,5.6C18.4,22.3,15.6,23.6,12.5,23.6z"/>
<circle class="st0" cx="12.5" cy="10.2" r="3.6"/>
<ellipse class="st0" cx="12.3" cy="19.4" rx="8.4" ry="5"/>
</svg>
