<?xml version="1.0" encoding="utf-8"?>
<!-- Generator: Adobe Illustrator 20.1.0, SVG Export Plug-In . SVG Version: 6.00 Build 0)  -->
<svg version="1.1" id="Layer_1" xmlns="http://www.w3.org/2000/svg" xmlns:xlink="http://www.w3.org/1999/xlink" x="0px" y="0px"
	 viewBox="0 0 25 25" style="enable-background:new 0 0 25 25;" xml:space="preserve">
<style type="text/css">
	.st0{fill:#676867;}
</style>
<g>
	<path class="st0" d="M4.8,21.9L4.8,21.9c-0.1,0-0.2,0-0.3,0c-1,0-1.9-0.7-1.9-1.7l0-0.8V3.5l0-0.1c0-0.1,0-0.1,0-0.2
		c0-1,0.8-1.8,1.9-1.8l0.6,0v8.3l1.7-1.8l1.7,1.8V1.5h7.6l0.6,0c1,0,1.8,0.8,1.8,1.7l0,0.8c0.5-0.4,1-0.6,1.6-0.9v0h-0.1
		C20,1.5,18.6,0.1,16.8,0v0H4.4v0c-1.9,0-3.4,1.5-3.4,3.2c0,0.1,0,0.2,0,0.3v16.7h0c0.1,1.7,1.6,3.1,3.5,3.1c0.1,0,0.2,0,0.3,0h4.8
		c-0.3-0.5-0.6-0.9-0.8-1.5H4.8z"/>
	<path class="st0" d="M21.8,11c-0.7-0.2-1.4-0.3-2.2-0.1c-0.6,0.2-1.3,0.3-1.9,0.3c0-0.3,0-0.7,0-1l0.9-0.9c2.2-0.1,4-2,4-4.2
		c0,0,0,0,0,0c0,0,0-0.1,0-0.1c0-0.1-0.1-0.1-0.2-0.1c-2.2,0-4.1,1.8-4.2,4l-0.5,0.5c-0.4-2.3-1.3-3.3-1.4-3.3
		c-0.1-0.1-0.3-0.1-0.5,0c-0.1,0.1-0.1,0.4,0,0.5c0,0,1.3,1.4,1.3,4.7c-0.4,0-0.8-0.1-1.2-0.1c0,0,0,0,0,0c-0.2,0-0.4-0.1-0.6-0.1
		c-0.1,0-0.1,0-0.2-0.1c-0.7-0.2-1.5-0.2-2.2,0.1c-2.5,0.9-3.7,4.4-2.9,8c0,0.2,0.1,0.4,0.1,0.5c0.1,0.4,0.3,0.8,0.4,1.2
		c0.7,1.6,1.7,2.9,3,3.7c0.7,0.4,1.4,0.6,2,0.6c0.3,0,0.7,0,1-0.1c0.1,0,0.1,0,0.2-0.1c0.2-0.1,0.3-0.1,0.5-0.1c0,0,0,0,0,0
		c0.2,0,0.4,0,0.6,0.1c0.4,0.1,0.8,0.2,1.2,0.2c0.7,0,1.4-0.2,2.1-0.6c1.6-0.9,2.8-2.7,3.4-4.9C25.7,15.7,24.4,11.9,21.8,11z"/>
</g>
</svg>
