<?xml version="1.0" encoding="utf-8"?>
<!-- Generator: Adobe Illustrator 20.1.0, SVG Export Plug-In . SVG Version: 6.00 Build 0)  -->
<svg version="1.1" id="Layer_1" xmlns="http://www.w3.org/2000/svg" xmlns:xlink="http://www.w3.org/1999/xlink" x="0px" y="0px"
	 viewBox="0 0 25 25" style="enable-background:new 0 0 25 25;" xml:space="preserve">
<style type="text/css">
	.st0{fill:#3BBB71;}
</style>
<g>
	<path class="st0" d="M23.9,10.5h-8.8c-0.3,0-0.5-0.2-0.5-0.5V1.1c0-0.6-0.4-1-1-1h-2.1c-0.6,0-1,0.4-1,1v8.8c0,0.3-0.2,0.5-0.5,0.5
		H1.1c-0.6,0-1,0.4-1,1v2.1c0,0.6,0.4,1,1,1h8.8c0.3,0,0.5,0.2,0.5,0.5v8.8c0,0.6,0.4,1,1,1h2.1c0.6,0,1-0.4,1-1v-8.8
		c0-0.3,0.2-0.5,0.5-0.5h8.8c0.6,0,1-0.4,1-1v-2.1C25,10.9,24.5,10.5,23.9,10.5L23.9,10.5z M23.9,10.5"/>
</g>
<g>
</g>
<g>
</g>
<g>
</g>
<g>
</g>
<g>
</g>
<g>
</g>
</svg>
