<?xml version="1.0" encoding="utf-8"?>
<!-- Generator: Adobe Illustrator 20.1.0, SVG Export Plug-In . SVG Version: 6.00 Build 0)  -->
<svg version="1.1" id="Layer_1" xmlns="http://www.w3.org/2000/svg" xmlns:xlink="http://www.w3.org/1999/xlink" x="0px" y="0px"
	 viewBox="0 0 25 25" style="enable-background:new 0 0 25 25;" xml:space="preserve">
<style type="text/css">
	.st0{fill:#676767;}
</style>
<g>
	<path class="st0" d="M8,4.6C8,1.8,10.2,0,12.5,0C14.8,0,17,1.8,17,4.6c1.5-0.2,2.8,0.1,3.9,1.1c0.9,0.8,1.4,1.8,1.5,2.9
		c0.2,2.2-1.3,4.5-3.9,4.9c0,0.5,0,1,0,1.6c0,0.3,0,0.6,0,0.9c0,0.4-0.1,0.5-0.5,0.5c-0.1,0-0.1,0-0.2,0c-3.4,0-6.8,0-10.2,0
		c-0.8,0-0.9-0.1-0.9-0.9c0-0.7,0-1.4,0-2.1c-1.4-0.2-2.5-0.9-3.3-2.1c-0.6-1-0.8-2-0.6-3.2C3.1,5.9,5.3,4.1,8,4.6z"/>
	<path class="st0" d="M12.5,22.4c-0.7,1-1.6,1.7-2.7,2.1c-1.2,0.4-2.5,0.6-3.8,0.2c-2-0.5-3-2-3.4-3.9c0-0.2,0-0.3-0.1-0.5
		C2.6,20.1,2.8,20,3,20c0.2,0,0.4-0.1,0.5,0.2c0,0.1,0,0.1,0.1,0.2c0.6,1.2,1.8,1.4,2.7,0.6c0.3-0.3,0.6-0.7,0.9-1.1
		c0.2-0.3,0.4-0.6,0.6-0.9c0.7-0.7,1.5-0.9,2.4-0.8c0.9,0.1,1.7,0.5,2.1,1.2c0.3-0.3,0.6-0.6,1-0.8c1.3-0.8,3-0.4,3.9,0.8
		c0.3,0.4,0.5,0.7,0.7,1.1c0.4,0.6,1,1,1.8,1c0.4,0,0.8-0.1,1-0.4c0.2-0.2,0.3-0.5,0.5-0.8c0.1-0.3,0.3-0.3,0.5-0.2
		c0.2,0,0.4,0.1,0.4,0.4c0,2.2-1.8,4.2-4,4.5c-1.6,0.2-3.1-0.1-4.5-1C13.4,23.5,12.9,23,12.5,22.4z"/>
</g>
</svg>
