<?xml version="1.0" encoding="utf-8"?>
<!-- Generator: Adobe Illustrator 20.1.0, SVG Export Plug-In . SVG Version: 6.00 Build 0)  -->
<svg version="1.1" id="Layer_1" xmlns="http://www.w3.org/2000/svg" xmlns:xlink="http://www.w3.org/1999/xlink" x="0px" y="0px"
	 viewBox="0 0 25 25" style="enable-background:new 0 0 25 25;" xml:space="preserve">
<style type="text/css">
	.st0{fill:#666766;}
</style>
<g>
	<g>
		<path class="st0" d="M24.3,22.7l-5.9-6.1c1.5-1.8,2.4-4.1,2.4-6.5c0-5.5-4.5-10-10-10c-5.5,0-10,4.5-10,10c0,5.5,4.5,10,10,10
			c2.1,0,4.1-0.6,5.7-1.8l6,6.2c0.2,0.3,0.6,0.4,0.9,0.4c0.3,0,0.7-0.1,0.9-0.4C24.7,24,24.8,23.2,24.3,22.7L24.3,22.7z M10.7,2.7
			c4.1,0,7.4,3.3,7.4,7.4c0,4.1-3.3,7.4-7.4,7.4c-4.1,0-7.4-3.3-7.4-7.4C3.3,6,6.6,2.7,10.7,2.7L10.7,2.7z M10.7,2.7"/>
	</g>
</g>
</svg>
