<?xml version="1.0" encoding="utf-8"?>
<!-- Generator: Adobe Illustrator 20.1.0, SVG Export Plug-In . SVG Version: 6.00 Build 0)  -->
<svg version="1.1" id="Layer_1" xmlns="http://www.w3.org/2000/svg" xmlns:xlink="http://www.w3.org/1999/xlink" x="0px" y="0px"
	 viewBox="0 0 40 40" style="enable-background:new 0 0 40 40;" xml:space="preserve">
<style type="text/css">
	.st0{fill:#696A69;}
</style>
<path class="st0" d="M36.2,0.5C35.9,0.2,35.5,0,35.1,0h-30C4.6,0,4.2,0.2,3.9,0.5C3.6,0.8,3.4,1.2,3.4,1.7v20c0,1.5,0.3,3,0.9,4.4
	c0.6,1.5,1.3,2.8,2.2,3.9c0.9,1.1,1.9,2.2,3.1,3.3c1.2,1.1,2.3,2,3.3,2.7c1,0.7,2.1,1.4,3.2,2c1.1,0.6,1.9,1.1,2.3,1.3
	c0.5,0.2,0.8,0.4,1.1,0.5c0.2,0.1,0.4,0.2,0.7,0.2c0.2,0,0.5-0.1,0.7-0.2c0.3-0.1,0.6-0.3,1.1-0.5c0.5-0.2,1.2-0.7,2.3-1.3
	c1.1-0.6,2.1-1.3,3.2-2c1-0.7,2.1-1.6,3.3-2.7c1.2-1.1,2.2-2.2,3.1-3.3c0.9-1.1,1.6-2.4,2.2-3.9c0.6-1.5,0.9-2.9,0.9-4.4v-20
	C36.7,1.2,36.6,0.8,36.2,0.5z M34.7,21.7c0,1.2-0.2,2.5-0.7,3.7c-0.5,1.3-1.2,2.4-1.9,3.4c-0.8,1-1.7,2.1-2.8,3
	c-1.1,1-2.2,1.9-3.1,2.5c-1,0.7-2,1.3-3,1.9c-1.1,0.6-1.8,1-2.2,1.2c-0.4,0.2-0.7,0.3-0.9,0.4c-0.1,0-0.2-0.1-0.4-0.2V2h15V21.7z"/>
</svg>
