<?xml version="1.0" encoding="utf-8"?>
<!-- Generator: Adobe Illustrator 20.1.0, SVG Export Plug-In . SVG Version: 6.00 Build 0)  -->
<svg version="1.1" id="Layer_1" xmlns="http://www.w3.org/2000/svg" xmlns:xlink="http://www.w3.org/1999/xlink" x="0px" y="0px"
	 viewBox="0 0 25 25" style="enable-background:new 0 0 25 25;" xml:space="preserve">
<style type="text/css">
	.st0{fill:#FFFFFF;}
</style>
<path class="st0" d="M0.5,13.8c-0.1-0.1-0.3-0.4-0.3-0.7c0-0.1,0.1-0.4,0.3-0.7l1.3-1.3c0.4-0.4,1-0.4,1.3,0l0.1,0.1l5.3,5.5
	c0.1,0.1,0.4,0.1,0.7,0L21.9,3.6H22c0.4-0.4,1-0.4,1.3,0l1.3,1.3c0.4,0.4,0.4,1,0,1.3L9.4,22.1c-0.1,0.1-0.4,0.3-0.7,0.3
	S8.3,22.2,8,22.1l-7.4-8L0.5,13.8z"/>
</svg>
